<svg width="297" height="305" viewBox="0 0 297 305" fill="none" xmlns="http://www.w3.org/2000/svg">
<rect x="0.5" y="0.593994" width="296" height="303.797" rx="60" fill="white"/>
<g clip-path="url(#clip0_202_82)">
<rect width="256" height="263.797" transform="translate(20.5 20.594)" fill="white"/>
<path d="M57.0925 44.5685C55.8652 43.8865 54.547 43.341 53.1381 42.947C51.729 42.553 50.229 42.2954 48.6686 42.1893C47.108 42.0681 46.0171 42.1136 45.0322 42.1742C44.0322 42.2348 43.0928 42.3257 42.1837 42.5227C41.2898 42.7197 40.4413 42.947 39.6231 43.1895C38.8049 43.432 38.0473 43.6896 37.1685 44.0381C36.2746 44.3866 35.2594 44.8261 34.0927 45.3565C32.9261 45.8869 31.6231 46.5233 30.9716 47.0234C29.5473 47.8114 30.411 47.7356 29.6231 48.0235C30.5018 47.9932 32.017 47.6599 33.3655 47.3568C34.714 47.0386 35.8806 46.7658 36.8958 46.5234C37.9109 46.2961 38.7443 46.1142 39.4715 45.9778C40.1988 45.8415 41.0018 45.7354 41.8352 45.6293C42.6685 45.5232 43.5473 45.4323 44.4564 45.2656C45.3655 45.0838 46.32 44.9171 47.5019 44.7504C48.6837 44.5989 50.1079 44.5231 51.4865 44.5382C52.8652 44.5534 54.229 44.6746 55.5624 44.8868C56.8957 45.0989 58.229 45.4172 59.1684 45.8112C60.1078 46.2203 60.1079 46.2203 59.4865 45.9172C59.4865 45.9324 58.3046 45.2504 57.0925 44.5685Z" fill="black"/>
<path d="M185.484 127.793C184.212 127.777 183.302 127.762 182.727 127.717C182.166 127.671 181.196 127.58 180.272 127.459C179.363 127.338 178.484 127.187 177.636 127.005C176.787 126.823 175.954 126.61 175.166 126.368C174.378 126.126 173.439 125.792 172.515 125.398C171.59 125.004 170.651 124.55 169.712 124.035C168.772 123.519 167.818 122.943 166.878 122.307C165.939 121.67 164.514 120.564 163.211 119.503C161.909 118.442 160.742 117.457 159.697 116.518C158.651 115.579 157.727 114.715 157.227 114.351C156.408 113.548 156.621 114.063 156.303 113.624C156.484 114.184 157.121 115.215 157.908 116.306C158.712 117.397 159.666 118.519 160.772 119.716C161.878 120.898 163.136 122.14 164.287 123.186C165.454 124.231 166.408 124.974 167.363 125.656C168.333 126.338 169.302 126.959 170.287 127.505C171.272 128.05 172.272 128.52 173.211 128.914C174.136 129.293 175.015 129.611 175.924 129.884C176.833 130.157 177.772 130.399 178.742 130.611C179.711 130.808 180.711 130.975 181.484 131.096C182.257 131.202 183.06 131.278 184.151 131.339C185.242 131.399 186.666 131.445 188.409 131.46C190.151 131.475 192.227 131.46 193.621 131.475C195.015 131.475 195.545 131.505 196.061 131.536C196.576 131.566 197.045 131.596 197.5 131.642C197.954 131.672 198.379 131.717 199.015 131.793C199.667 131.884 200.515 132.021 201.303 132.187C202.106 132.354 202.848 132.566 203.545 132.809C204.242 133.051 204.879 133.309 206.5 134.203C208.121 135.097 210.697 136.703 213.121 138.446C215.545 140.174 217.833 142.022 220 143.992C222.166 145.962 224.257 148.008 225.727 149.645C227.197 151.281 227.197 151.281 226.318 150.114C226.318 150.114 224.833 147.538 223.06 145.144C221.287 142.75 219.257 140.522 217.015 138.431C214.773 136.34 212.333 134.4 209.712 132.597C207.091 130.794 206.303 130.369 205.515 130.02C204.727 129.672 203.909 129.354 203.03 129.096C202.151 128.823 201.227 128.611 200.257 128.429C199.288 128.248 198.818 128.172 198.348 128.111C197.863 128.05 197.363 127.99 196.833 127.944C196.303 127.899 195.742 127.869 195.136 127.838C194.53 127.808 192.227 127.823 190.273 127.823C188.363 127.808 186.742 127.793 185.484 127.793Z" fill="black"/>
<path d="M274.456 142.732C270.85 135.898 269.092 131.488 267.123 126.896C265.153 122.32 263.047 117.683 260.804 113C258.547 108.318 256.153 103.59 253.577 98.771C251.001 93.952 247.592 89.2696 244.441 85.3142C241.289 81.3592 238.32 78.0404 235.547 75.3431C232.774 72.6609 230.168 70.5998 227.729 69.1908C225.289 67.7814 223.153 66.9481 220.744 66.4027C218.334 65.872 215.683 65.6295 212.774 65.6905C209.865 65.751 206.698 66.0842 203.304 66.7057C199.91 67.3116 198.622 67.4482 196.683 68.0999C194.744 68.7513 192.365 69.8577 189.516 71.4032C186.668 72.9643 183.319 74.9796 179.501 77.4345C175.683 79.8893 174.82 80.223 173.668 80.5864C172.516 80.9503 171.274 81.2684 169.956 81.5109C168.638 81.7534 167.213 81.9202 165.713 82.0261C164.213 82.1324 161.607 82.2534 159.077 82.2988C156.547 82.3442 154.077 82.2988 151.683 82.1778C149.289 82.0563 146.941 81.8441 144.683 81.5563C142.41 81.2684 141.153 80.9806 139.85 80.5259C138.547 80.0713 137.214 79.4502 135.85 78.6619C134.486 77.874 133.062 76.9344 132.244 76.51C132.123 76.4192 132.092 76.4041 131.986 76.3436C129.774 74.1614 126.077 70.1153 122.82 66.5998C119.032 62.5082 115.911 59.2199 113.456 56.7041C111.001 54.1886 109.183 52.4458 108.032 51.4911C107.168 50.7789 105.486 49.4302 103.623 47.9754C104.093 48.0208 104.577 48.0815 104.971 48.1118C106.168 48.1724 106.88 48.1724 107.592 48.1269C108.305 48.0966 109.047 48.036 109.789 47.9451C110.532 47.8542 111.304 47.7329 112.774 47.3692C114.244 47.0055 116.123 46.5054 117.744 46.0811C119.365 45.672 120.714 45.3538 121.805 45.1265C122.88 44.8992 123.683 44.778 124.471 44.7021C125.259 44.6264 126.168 44.5506 127.077 44.5355C127.986 44.5203 128.895 44.5354 129.805 44.5658C130.713 44.5961 131.638 44.6719 132.365 44.7628C133.092 44.8537 133.592 44.9295 134.077 45.0204C134.577 45.1113 135.062 45.2325 135.562 45.3689C136.062 45.5053 136.547 45.6569 136.956 45.7933C137.35 45.9296 137.653 46.0357 137.926 46.1418C138.198 46.2478 138.441 46.3388 138.668 46.4297C138.895 46.5206 139.092 46.6115 139.789 46.9449C140.486 47.2783 141.683 47.8542 142.804 48.3694C143.926 48.8846 144.956 49.3392 145.911 49.7332C146.865 50.1272 147.744 50.4606 148.502 50.7485C149.259 51.0213 150.107 51.294 151.123 51.5668C152.138 51.8396 153.335 52.1427 154.713 52.4306C156.092 52.7337 157.668 53.0216 158.698 53.2035C159.728 53.3853 160.122 53.4762 160.532 53.5823C160.895 53.6732 161.274 53.7793 161.653 53.9006C162.607 54.4158 163.562 54.7946 164.228 55.0977C164.926 55.4007 164.926 55.4007 164.471 55.1735C164.471 55.1735 163.623 54.6279 162.804 53.946C161.986 53.2641 161.168 52.5064 160.35 51.6729C159.517 50.8395 158.683 49.9151 157.85 48.8998C157.001 47.8845 156.501 47.2783 155.865 46.3539C155.229 45.4296 154.41 44.1566 153.441 42.5655C152.471 40.9743 151.335 39.0347 150.032 36.7767C148.728 34.5188 148.213 33.7611 147.759 33.1246C147.304 32.4882 146.85 31.8972 146.41 31.3517C145.971 30.8061 145.532 30.3212 145.092 29.8514C144.653 29.3968 143.668 28.4724 142.607 27.639C141.547 26.8055 140.41 26.0933 139.229 25.5023C138.047 24.9113 136.804 24.4264 135.532 24.0627C134.259 23.699 132.653 23.3353 130.91 23.1686C129.168 23.0019 127.335 23.0474 125.425 23.2747C123.516 23.502 121.516 23.9415 119.456 24.5476C117.395 25.1537 116.531 25.4568 115.683 25.7902C114.85 26.1236 114.016 26.457 113.213 26.8206C112.41 27.1843 111.607 27.5632 110.789 27.9875C109.956 28.4118 106.683 30.5181 103.971 32.2458C101.259 33.9734 99.0769 35.3069 97.4404 36.2618C95.804 37.2164 94.7132 37.7468 94.1981 37.8984C93.683 38.0348 92.7133 38.2621 91.789 38.3379C91.0466 38.3985 90.2433 38.3227 89.4253 38.2166C88.4405 37.6256 87.4556 37.0498 86.4859 36.5194C84.0314 35.1707 80.0619 33.2007 75.6071 31.8824C71.1527 30.564 66.2891 29.8972 61.0465 29.9124C55.8039 29.9124 50.1827 30.5792 44.0616 31.9127C37.9556 33.2462 33.2739 36.0799 29.7888 38.8381C26.2889 41.5961 23.7434 44.4299 22.1829 47.3848C20.6225 50.3397 20.1223 53.4009 20.7739 56.5075C21.4254 59.6142 23.486 62.3267 25.7131 64.5391C27.9402 66.7515 30.425 68.6306 33.1829 70.1762C35.9405 71.7217 38.9557 72.934 42.1828 73.7979C45.4101 74.6615 46.8645 74.9645 48.3039 75.1918C49.7433 75.404 51.1524 75.5406 52.531 75.5708C53.4401 75.5859 54.3038 75.5103 55.1825 75.4494C54.7886 75.6918 54.425 75.8889 54.031 76.1465C52.8643 76.9348 52.6219 77.1621 52.4098 77.3588C52.1977 77.5559 52.0007 77.753 51.8037 77.9803C51.6068 78.2076 51.4098 78.435 51.2128 78.6774C51.0159 78.9199 50.7583 79.2834 50.4704 79.6926C50.1825 80.1019 49.8643 80.5717 49.5007 81.102C49.1522 81.6323 48.7734 82.2387 48.425 82.9203C48.0613 83.6023 47.9856 83.754 47.8795 83.9204C47.7886 84.0872 47.6977 84.2389 47.6068 84.375C47.5159 84.5116 47.4401 84.6326 47.3795 84.7389C47.3189 84.8448 47.122 85.1175 46.9099 85.3907C46.6977 85.6634 46.4705 85.9361 46.228 86.2088C45.9856 86.4815 45.7129 86.7543 45.4402 87.0118C45.1674 87.2694 44.3947 87.9212 43.5917 88.5271C42.7887 89.1183 41.9553 89.6638 41.0917 90.179C40.2281 90.679 39.319 91.1488 38.8796 91.4673C37.9402 91.9216 38.4857 91.9064 37.9705 92.043C38.5311 92.0581 39.5614 91.8611 40.5766 91.5581C41.5917 91.2551 42.5766 90.861 43.5311 90.3912C44.4857 89.9214 45.4099 89.3759 46.0463 88.9364C46.6826 88.4969 47.0311 88.2242 47.3493 87.9514C47.6675 87.6787 47.9857 87.3909 48.2736 87.103C48.5614 86.8148 48.8342 86.5118 49.016 86.2996C49.1978 86.0874 49.2887 85.9664 49.4099 85.8147C49.516 85.6785 49.622 85.5268 49.7432 85.36C49.8644 85.1936 49.9857 85.0268 50.2735 84.5721C50.5614 84.1326 50.9554 83.4964 51.2735 82.9203C51.5917 82.3294 51.8796 81.8143 52.1372 81.3596C52.3948 80.9049 52.622 80.5108 52.7887 80.223C52.9554 79.9351 53.1069 79.7229 53.2584 79.5107C53.4099 79.2985 53.5463 79.1169 53.6978 78.935C53.8493 78.7531 54.0008 78.5866 54.5614 78.0711C55.1372 77.5408 56.1523 76.6772 57.122 75.8889C57.4251 75.6465 57.7129 75.4498 58.016 75.2073C58.1372 75.1922 58.2736 75.1615 58.3948 75.1464C58.1372 75.4346 57.8797 75.7225 57.6675 76.0406C57.3645 76.4801 57.0463 76.9802 56.7281 77.5408C56.4099 78.1017 56.0918 78.7228 55.8493 79.2229C55.6069 79.7229 55.4857 80.0259 55.3797 80.3141C55.2736 80.602 55.1675 80.8596 55.0766 81.1171C54.9857 81.3747 54.91 81.6172 54.7281 82.2689C54.5463 82.9203 54.2887 83.8901 54.0766 84.6935C53.8645 85.5117 53.7281 86.1634 53.6221 86.6786C53.5009 87.1787 53.4099 87.5119 53.319 87.8455C53.2281 88.1788 53.1069 88.5426 52.9705 88.9213C52.8342 89.2852 52.6827 89.6638 52.516 90.0277C52.3493 90.3912 52.1675 90.755 51.9857 91.0732C51.8039 91.3913 51.622 91.6946 51.4251 91.9673C51.2433 92.2249 51.0311 92.4977 50.819 92.7552C50.6069 93.0128 50.3796 93.2704 50.213 93.4524C50.0463 93.6343 49.8948 93.7856 49.5463 94.0886C49.213 94.392 48.6978 94.816 48.0311 95.3769C47.3645 95.9375 46.5614 96.6497 45.9857 97.1649C45.4099 97.6801 45.1827 97.9226 44.9554 98.1953C44.7282 98.468 44.5009 98.7562 44.2584 99.0743C44.016 99.3925 43.7736 99.7412 43.5615 99.9685L43.4857 100.044C43.4857 100.044 43.7888 99.7412 44.1221 99.4987C44.4554 99.2563 44.7736 99.0441 45.0615 98.8319C45.3645 98.6348 45.6372 98.4377 45.8948 98.2864C46.1524 98.1196 47.1978 97.5288 48.0614 97.0136C48.9251 96.4981 49.622 96.074 50.122 95.7253C50.6372 95.3921 50.9857 95.1496 51.1675 94.9979C51.3493 94.8466 51.6372 94.6193 51.9251 94.3466C52.2281 94.0735 52.5159 93.8007 52.7735 93.4978C53.0463 93.1948 53.3038 92.8918 53.5463 92.5582C53.7887 92.2249 54.0614 91.8459 54.2887 91.4522C54.5311 91.058 54.7433 90.6488 54.9554 90.2399C55.1675 89.8306 55.3493 89.4062 55.516 88.9969C55.6826 88.588 55.8038 88.3002 55.9553 87.8455C56.1068 87.406 56.2887 86.8148 56.4857 86.0874C56.6978 85.36 56.8645 84.4662 57.0614 83.4358C57.2584 82.4051 57.2887 82.2387 57.3493 82.0265C57.3948 81.8143 57.4553 81.5869 57.5311 81.3293C57.6069 81.0718 57.6826 80.799 57.7736 80.5263C57.8644 80.2532 58.1069 79.6019 58.3342 79.0258C58.5766 78.435 58.8038 77.9198 59.0463 77.4651C59.2735 77.0104 59.4857 76.6163 59.6979 76.3133C59.91 75.9952 60.3189 75.48 60.8188 74.98C61.0764 74.7375 61.4554 74.4951 61.7734 74.2526C62.0612 74.1614 62.3645 74.0404 62.6675 73.919C62.4099 74.2677 62.1978 74.6161 62.0461 74.9191C61.7734 75.4649 61.6978 75.7528 61.6373 76.0557C61.5764 76.3587 61.5461 76.6772 61.5461 76.9953C61.5461 77.3286 61.5612 77.6622 61.728 78.4652C61.8948 79.2682 62.1372 80.299 62.3343 81.1625C62.5309 82.0265 62.6675 82.7387 62.7431 83.2539C62.8343 83.7842 62.8494 84.1023 62.8645 84.4511C62.8796 84.7994 62.8796 85.1785 62.8645 85.542C62.8494 85.9058 62.8191 86.2693 62.7885 86.6332C62.7582 86.9967 62.728 87.3455 62.6675 87.7241C62.607 88.1031 62.5309 88.4969 62.425 88.9364C62.3188 89.3759 62.1826 89.876 62.0158 90.4214C61.8494 90.9669 61.6373 91.5429 61.4856 92.0127C61.3339 92.4674 61.1675 92.9069 60.8797 93.6188C60.5915 94.331 60.1978 95.3009 59.6827 96.5438C59.1826 97.7864 58.5765 99.3017 58.1826 100.347C57.8038 101.393 57.6826 101.772 57.5765 102.151C57.4705 102.529 57.3796 102.893 57.2886 103.272C57.1978 103.636 57.1068 103.999 57.0159 104.257C56.925 104.514 56.925 104.514 56.9856 104.348C56.9856 104.348 57.122 104.014 57.3038 103.681C57.4856 103.363 57.6826 103.029 57.8947 102.711C58.0917 102.393 58.2886 102.06 58.5008 101.726C58.6977 101.393 59.6672 99.8471 60.4403 98.5289C61.2129 97.1952 61.8188 96.1043 62.2885 95.2555C62.7582 94.4071 63.0763 93.7856 63.2582 93.407C63.4401 93.028 63.7279 92.4216 63.9855 91.8308C64.243 91.24 64.4703 90.679 64.6522 90.1638C64.8342 89.6487 64.9854 89.1486 65.1068 88.6939C65.2279 88.2393 65.319 87.8149 65.3946 87.3757C65.4854 86.9362 65.5009 86.4815 65.4854 86.0269C65.4854 85.5722 65.4552 85.1175 65.4098 84.678C65.3644 84.2389 65.3341 83.9052 65.2279 83.3749C65.122 82.8598 64.9552 82.208 64.7128 81.4353C64.4703 80.6625 64.1674 79.738 63.7884 78.6774C63.425 77.6164 63.3796 77.45 63.3342 77.2075C63.2885 76.9651 63.2733 76.7226 63.2733 76.5104C63.2733 76.2982 63.2885 76.086 63.3036 75.9343C63.3191 75.783 63.5767 75.1162 63.9098 74.4947C64.1977 73.9644 64.5766 73.4794 64.9854 72.9945C65.7736 72.6613 66.5916 72.2974 67.4706 71.8885C67.1067 72.2974 66.7736 72.7218 66.516 73.1765C66.2127 73.7068 65.9703 74.2673 65.819 74.7674C65.6673 75.2678 65.5766 75.707 65.5312 76.1768C65.4703 76.6314 65.4552 77.1164 65.4703 77.6013C65.4854 78.0862 65.5161 78.6014 65.5463 78.935C65.5766 79.2834 65.6673 79.738 65.8341 80.3746C66.0009 81.0108 66.2585 81.8597 66.5916 82.9505C66.94 84.0418 67.4706 85.3297 67.8189 86.1782C68.1521 87.027 68.2584 87.3905 68.3491 87.7695C68.4251 88.1485 68.5008 88.512 68.531 88.891C68.5764 89.2696 68.6067 89.6335 68.6369 90.1638C68.6676 90.6941 68.6369 91.4518 68.4554 92.5128C68.2735 93.5885 67.9554 94.9525 67.516 96.6195C67.0765 98.2861 66.5463 100.256 66.0463 101.848C65.5312 103.454 65.5312 103.454 65.9551 102.408C65.9551 102.408 67.0765 100.453 67.9399 98.7108C68.8188 96.9678 69.4705 95.4374 69.9251 94.1344C70.3797 92.8309 70.6372 91.74 70.728 90.8761C70.8036 90.0125 70.8339 89.6184 70.8339 89.1637C70.8339 88.7091 70.8187 88.2544 70.7734 87.8001C70.728 87.3455 70.6675 86.8908 70.5612 86.3908C70.4553 85.8907 69.9553 84.3902 69.5159 83.1779C69.0764 81.9656 68.6978 81.0112 68.4248 80.2839C68.1521 79.5716 68.0008 79.1169 67.9554 78.9199C67.9097 78.7228 67.8038 78.2379 67.7433 77.8441C67.6824 77.4348 67.637 77.0558 67.6218 76.6923C67.6067 76.3285 67.6218 75.9801 67.6672 75.6469C67.713 75.3132 67.8038 74.8737 67.9554 74.4346C68.1067 73.995 68.3037 73.5706 68.5764 73.1311C68.8491 72.6915 69.1827 72.2524 69.5764 71.8129C69.9705 71.3733 70.3797 71.0095 70.8187 70.6762C70.9402 70.5854 71.0612 70.5245 71.1826 70.4489C71.3645 70.4186 71.5158 70.3732 71.7128 70.343C72.1371 70.2821 72.5917 70.2367 73.0615 70.2064C73.5312 70.1762 74.7736 70.1913 75.8189 70.3279C76.8642 70.464 77.7432 70.7065 78.4553 71.0401C79.1674 71.3733 79.7279 71.7826 80.1977 72.3281C80.6674 72.8584 81.6825 74.3434 82.5009 75.783C83.3189 77.2227 83.9554 78.6018 84.4251 79.9654C84.8793 81.3142 85.1675 82.6173 85.2734 83.8447C85.3948 85.0722 85.1218 88.0725 84.6218 91.2702C84.1218 94.468 83.4097 97.8015 82.4702 101.302C81.5312 104.787 80.3796 108.424 78.9704 112.258C77.5764 116.092 77.3188 117.38 77.2129 118.471C77.0915 119.562 77.0613 120.699 77.0915 121.866C77.1373 123.033 77.2432 124.215 77.4402 125.487C77.6373 126.745 78.3036 129.23 79.5918 131.837C80.4401 133.519 81.5463 135.216 82.8946 136.928C83.137 137.504 83.3643 138.11 83.4857 138.656C83.7433 139.717 83.6521 140.505 83.2735 141.141C82.8946 141.778 82.1522 142.323 80.7888 142.869C79.425 143.414 77.6373 143.869 75.7886 144.111C73.94 144.354 72.046 144.384 70.0612 144.202C68.0761 144.02 66.0156 143.626 64.1825 143.081C62.3339 142.55 60.6521 141.823 58.7734 140.793C56.8946 139.777 54.8492 138.474 52.622 136.853C50.3948 135.231 48.0009 133.307 45.2586 130.973C42.501 128.624 39.8647 126.276 37.7434 124.154C35.6222 122.048 34.0161 120.184 32.9403 118.623C31.8646 117.062 31.3039 115.834 30.2433 114.546C29.1827 113.258 28.2888 113.334 27.6525 113.698C27.0161 114.062 26.5463 114.516 26.1373 115.077C25.7282 115.622 25.3191 116.289 24.304 118.911C23.2888 121.548 22.1676 125.73 21.6676 129.716C21.1524 133.701 21.2737 137.474 22.0312 141.02C22.7888 144.566 24.1827 147.87 26.8343 151.628C29.501 155.401 33.0769 159.372 36.8645 162.796C40.6521 166.221 44.6372 169.085 48.8189 171.388C53.0006 173.692 57.3794 175.435 61.6978 176.571C66.016 177.707 69.9099 178.404 73.44 178.814C76.9701 179.223 80.1674 179.329 83.0311 179.147C85.8944 178.95 88.4401 178.435 90.1828 177.768C91.9252 177.101 92.9705 176.51 94.0158 175.844C94.1221 175.767 94.2431 175.677 94.3494 175.601C93.3797 177.632 92.4705 180.223 91.9252 182.951C91.016 187.512 91.0614 192.391 92.0764 197.528C93.0919 202.665 95.0918 208.015 97.6976 212.788C100.304 217.562 103.213 221.305 106.698 224.563C110.183 227.821 114.228 230.594 118.819 232.867C123.41 235.14 128.546 236.928 132.243 237.807C135.94 238.686 137.819 238.853 139.773 238.837C141.728 238.822 143.758 238.64 145.864 238.277C147.97 237.913 150.152 237.398 151.879 236.928C153.622 236.458 155.622 235.807 158.546 234.685C161.471 233.564 165.334 231.973 170.167 229.897C170.986 229.548 171.864 229.169 172.728 228.79C175.046 235.822 177.395 241.535 179.758 245.929C184.592 252.976 188.713 257.946 192.122 260.871C195.001 263.766 200.682 267.705 209.137 272.661C217.667 277.722 223.698 280.632 227.228 281.389C231.122 282.284 233.501 282.041 234.364 280.647C234.682 280.147 234.789 279.48 234.713 278.677C233.061 275.919 231.577 272.691 230.213 269.024C229.713 266.918 229.289 264.72 229.031 262.341C228.622 258.537 228.561 254.355 228.804 249.748C229.061 245.157 229.319 242.308 229.591 239.656C229.864 237.004 230.212 234.549 230.607 232.291C231.001 230.033 231.47 227.987 231.985 226.124C232.501 224.26 232.758 223.487 233.046 222.684C233.334 221.896 233.622 221.108 233.925 220.335C234.228 219.562 234.546 218.789 234.864 218.077C235.182 217.35 236.364 215.076 237.455 212.97C238.531 210.864 239.501 208.939 240.334 207.212C241.152 205.469 241.864 203.923 242.44 202.544C243.031 201.165 243.455 200.029 243.819 198.938C244.182 197.847 244.516 196.786 244.789 195.756C245.061 194.725 245.289 193.725 245.47 192.709C245.652 191.694 245.789 188.997 245.697 186.496C245.607 184.314 245.319 182.329 244.864 180.48C245.092 180.829 245.273 181.117 245.516 181.511C246.728 183.481 248.183 185.905 249.94 188.799C251.682 191.694 252.5 192.815 253.167 193.739C253.834 194.649 254.425 195.437 254.925 196.088C255.425 196.74 255.849 197.27 256.182 197.665C256.516 198.058 256.819 198.407 257.243 198.847C257.667 199.286 258.182 199.771 258.788 200.317C259.395 200.862 260.107 201.453 260.91 202.12C261.713 202.787 262.046 203.014 262.47 203.195C262.894 203.377 263.501 203.453 264.182 203.18C264.864 202.923 265.288 202.423 265.485 201.847C265.682 201.256 265.637 200.62 265.531 200.195C265.425 199.756 265.258 199.331 265.046 198.877C264.834 198.422 264.576 197.937 264.273 197.392C263.955 196.846 262.228 194.149 260.788 191.906C259.349 189.648 258.198 187.83 257.319 186.42C256.455 185.026 255.879 184.071 255.607 183.541C255.319 183.01 254.819 182.071 254.334 181.116C253.849 180.147 253.364 179.146 252.879 178.07C252.395 177.01 251.925 175.888 251.455 174.767C251 173.63 249.303 168.69 247.758 163.871C246.212 159.052 244.804 154.385 243.546 149.854C242.289 145.323 241.167 140.943 240.183 136.67C239.198 132.397 238.637 130.609 238.091 129.048C237.546 127.487 236.971 126.063 236.395 124.775C235.879 123.623 235.319 122.608 234.743 121.638C235.697 122.153 236.713 122.699 237.804 123.32C239.819 124.471 242.016 125.805 242.804 126.456C243.592 127.093 244.546 127.927 245.622 128.881C246.698 129.851 247.895 130.972 249.213 132.23C250.531 133.488 251.925 134.852 254.107 137.216C256.288 139.565 258.167 141.489 259.697 143.02C261.228 144.551 262.425 145.672 263.304 146.429C264.183 147.187 264.698 147.521 266.379 148.642C268.046 149.763 269.576 150.642 270.94 151.263C272.304 151.885 273.561 152.248 274.774 152.309C276.061 152.279 278.047 149.567 274.456 142.732ZM93.7121 40.049C94.4848 39.9884 95.4847 39.7156 96.9241 39.1246C98.3636 38.5336 100.318 37.5789 102.818 36.2606C105.303 34.9422 108.333 33.2601 110.333 32.169C112.333 31.0628 113.075 30.7294 113.848 30.4112C114.606 30.093 115.394 29.7899 116.182 29.5019C116.97 29.214 117.773 28.9412 119.152 28.4866C120.53 28.032 122.409 27.532 124.167 27.1986C125.924 26.8803 127.561 26.7288 129.091 26.7439C130.621 26.7742 132.03 26.9561 133.287 27.2592C134.545 27.5622 135.591 27.8956 136.606 28.3351C137.621 28.7594 138.59 29.2897 139.53 29.8959C140.469 30.502 141.379 31.1991 142.015 31.7598C142.651 32.3205 143.03 32.6842 143.424 33.1236C143.833 33.548 144.257 34.0329 144.697 34.5784C145.136 35.1088 145.606 35.6998 146.56 37.1091C147.515 38.5184 148.909 40.5944 150.151 42.3524C151.378 44.1102 152.439 45.5499 153.333 46.6713C154.227 47.7927 154.969 48.611 155.757 49.399C156.545 50.187 157.56 51.081 158.545 51.8842C158.727 52.0357 158.909 52.1115 159.106 52.2479C158.409 51.9903 157.454 51.6417 156.53 51.3235C155.09 50.8234 153.833 50.3688 152.772 49.9748C151.697 49.5808 150.818 49.2322 150.121 48.9292C149.424 48.6261 148.666 48.2776 147.833 47.8533C147 47.4441 146.09 46.9592 145.091 46.4137C144.091 45.8682 143 45.2771 141.833 44.6104C140.666 43.9437 140.409 43.8224 140.182 43.7012C139.939 43.5799 139.682 43.4739 139.409 43.3375C139.136 43.2162 138.833 43.0799 138.515 42.9435C138.197 42.8071 137.636 42.595 137.075 42.3828C136.515 42.1858 135.939 42.0039 135.363 41.8524C134.788 41.7009 134.212 41.5796 133.636 41.4736C133.06 41.3675 132.045 41.2008 131.015 41.0947C129.985 40.9886 128.954 40.928 127.924 40.9432C126.894 40.9735 125.879 41.0493 124.879 41.1857C123.879 41.322 123.136 41.4281 122.121 41.6554C121.121 41.8827 119.878 42.2161 118.424 42.6556C116.954 43.095 115.257 43.6557 113.318 44.3225C111.394 44.9892 110.757 45.1559 110.045 45.3075C109.348 45.459 108.666 45.5954 108 45.7015C107.333 45.8075 106.682 45.8985 106.06 45.9591C105.439 46.0197 103.818 46.0803 102.379 46.0197C101.833 46.0045 101.333 45.9439 100.833 45.8985C98.4997 44.1558 96.1969 42.5192 93.9394 41.0341C93.4243 40.7007 92.9088 40.3825 92.4089 40.0643C92.8937 40.0946 93.3483 40.0793 93.7121 40.049ZM269.968 146.491C268.544 145.612 266.847 144.445 266.362 144.082C265.877 143.718 264.999 142.93 263.741 141.718C262.483 140.505 260.862 138.869 258.862 136.853C256.862 134.838 254.438 132.398 252.923 131.08C251.408 129.761 250.044 128.594 248.802 127.579C247.544 126.564 246.423 125.685 245.408 124.957C244.393 124.23 243.423 123.578 241.105 122.472C238.787 121.366 236.695 120.472 234.817 119.805C234.256 119.608 233.756 119.472 233.241 119.32C232.484 118.396 231.559 117.381 230.59 116.396C228.862 114.653 227.074 113.092 225.196 111.744C223.317 110.395 221.362 109.258 219.317 108.334C217.272 107.394 213.999 106.409 210.802 105.576C207.605 104.742 204.469 104.076 201.362 103.576C198.256 103.076 195.196 102.757 193.665 102.878C190.65 102.833 192.105 103.121 190.635 102.97C192.059 103.53 194.983 104.212 197.938 104.924C200.893 105.652 203.893 106.485 206.923 107.41C209.953 108.349 213.029 109.395 215.453 110.38C217.877 111.365 219.65 112.334 221.362 113.486C223.074 114.638 224.756 115.926 226.377 117.426C227.998 118.911 229.574 120.593 230.574 121.851C231.574 123.109 232.105 124.033 232.65 125.124C233.195 126.2 233.725 127.427 234.241 128.807C234.771 130.185 235.286 131.701 235.998 134.565C236.711 137.429 237.741 141.778 238.923 146.264C240.105 150.749 241.423 155.371 242.892 160.145C244.362 164.918 245.968 169.813 247.074 172.965C248.18 176.117 248.68 177.299 249.165 178.435C249.665 179.572 250.165 180.663 250.68 181.708C251.195 182.754 251.695 183.754 252.059 184.436C252.422 185.118 252.847 185.876 253.544 187.027C254.24 188.179 255.21 189.74 256.468 191.725C256.65 192.013 256.847 192.331 257.044 192.634C256.983 192.543 256.938 192.498 256.877 192.422C256.271 191.619 255.589 190.664 254.301 188.709C253.013 186.739 251.256 184.057 249.741 181.83C248.241 179.602 246.983 177.829 245.998 176.511C245.013 175.192 244.271 174.283 243.18 173.177C242.089 172.07 240.468 170.51 238.847 169.025C237.225 167.54 235.589 166.146 233.938 164.858C232.286 163.57 230.589 162.418 229.362 161.539C228.135 160.675 228.135 160.675 228.892 161.311C228.892 161.311 230.256 162.781 231.65 164.297C233.028 165.812 234.453 167.343 235.892 168.918C237.332 170.495 238.786 172.116 240.241 173.813C241.453 175.222 241.953 175.829 242.483 176.571C242.62 177.041 242.741 177.541 242.847 178.056C243.256 179.935 243.483 181.966 243.498 184.193C243.514 186.421 243.332 188.83 243.074 190.482C242.817 192.134 242.589 193.028 242.301 193.952C242.028 194.877 241.695 195.832 241.317 196.817C240.938 197.802 240.529 198.832 240.013 199.953C239.498 201.075 238.832 202.439 238.044 204C237.786 204.5 237.514 205.06 237.226 205.606C237.226 205.575 237.241 205.545 237.241 205.515C237.483 203.212 237.377 201.09 237.119 199.681C236.862 198.287 236.635 197.378 236.347 196.468C236.059 195.544 235.665 194.604 235.195 193.649C234.741 192.68 234.21 191.695 233.832 191.013C233.453 190.331 233.241 190.013 233.028 189.694C232.816 189.361 232.574 189.043 232.316 188.694C232.059 188.361 231.801 187.997 231.013 187.103C230.226 186.209 229.119 184.951 228.21 183.921C227.301 182.89 226.589 182.072 226.089 181.481C225.589 180.89 225.301 180.526 225.028 180.133C224.756 179.738 224.362 179.193 223.953 178.556C223.544 177.92 223.104 177.223 222.619 176.465C222.15 175.692 221.619 174.874 221.286 174.177C220.953 173.495 220.953 173.495 221.15 173.965C221.15 173.965 221.453 174.95 221.71 175.874C221.968 176.799 222.256 177.647 222.559 178.405C222.862 179.178 223.18 179.86 223.498 180.466C223.816 181.072 223.953 181.375 224.286 181.905C224.62 182.451 225.12 183.209 225.816 184.178C226.498 185.163 227.377 186.36 228.438 187.785C229.498 189.21 229.695 189.512 229.922 189.861C230.135 190.194 230.347 190.528 230.529 190.831C230.711 191.149 230.877 191.437 231.029 191.71C231.18 191.983 231.634 192.968 232.044 193.923C232.453 194.862 232.801 195.771 233.104 196.62C233.407 197.468 233.695 198.271 233.907 199.029C234.135 199.787 234.544 201.484 234.68 203.379C234.817 205.272 234.665 207.455 234.256 209.91C234.12 210.743 233.938 211.607 233.771 212.44C233.301 213.35 232.862 214.213 232.483 214.956C231.68 216.547 231.332 217.335 230.998 218.153C230.665 218.972 230.347 219.79 230.044 220.623C229.741 221.457 229.453 222.29 229.014 223.684C228.589 225.079 228.059 227.125 227.589 229.352C227.135 231.58 226.741 234.004 226.407 236.595C226.074 239.202 225.816 241.99 225.65 245.884C225.483 249.779 225.574 254.401 226.059 258.613C226.165 259.583 226.377 260.447 226.528 261.356C226.544 261.614 226.544 261.887 226.559 262.144C227.059 267.721 228.756 273.207 231.65 278.601C230.529 278.541 229.635 278.419 228.998 278.238C221.771 275.919 211.696 270.342 198.756 261.508C193.832 258.038 188.604 252.234 183.059 244.096C180.68 239.565 178.423 233.973 176.271 227.321V227.306C179.362 225.957 182.347 224.654 184.483 223.714C187.998 222.169 188.726 221.926 189.544 221.714C190.377 221.502 191.301 221.29 192.331 221.123C193.362 220.941 194.483 220.789 195.938 219.714C197.392 218.638 196.589 217.153 195.983 216.88C195.377 216.592 194.725 216.41 193.862 216.213C193.013 216.016 191.922 215.804 189.316 215.44C186.695 215.077 183.195 214.622 180.331 214.228C177.452 213.834 175.21 213.501 173.604 213.228C173.074 213.137 172.634 213.061 172.225 212.985C172.18 212.834 172.149 212.682 172.104 212.516C170.665 207.121 168.24 191.831 164.801 166.661C164.195 162.994 163.649 160.342 163.134 158.736C158.892 146.31 153.347 135.475 146.513 126.246C152.846 139.657 157.331 151.129 159.952 160.645C160.907 164.176 162.983 178.315 166.21 203.047C166.74 206.169 167.316 209.078 167.967 211.775C167.983 211.836 167.998 211.912 168.013 211.972C167.392 211.806 166.771 211.624 166.18 211.442C164.937 211.048 163.892 210.654 163.058 210.245C162.21 209.836 161.589 209.427 159.71 207.638C157.831 205.85 154.679 202.577 151.785 199.122C148.891 195.682 146.255 192.076 143.846 188.287C141.452 184.499 139.21 180.559 137.649 177.498C136.088 174.437 136.088 174.437 136.967 176.543C136.967 176.543 138.21 180.998 140.012 185.226C141.816 189.454 144.028 193.485 146.603 197.334C149.164 201.183 152.088 204.85 155.361 208.29C158.634 211.73 159.482 212.412 160.437 212.957C161.391 213.518 162.497 214.018 163.77 214.473C165.043 214.927 166.467 215.352 168.043 215.731C168.452 215.822 168.785 215.913 169.088 215.988V216.004C169.346 216.064 169.603 216.125 169.876 216.185C170.164 216.261 170.452 216.322 170.77 216.382C170.997 216.428 171.225 216.473 171.512 216.534C171.937 216.609 172.437 216.701 172.982 216.791C173.073 216.807 173.134 216.822 173.24 216.837C174.316 217.019 175.603 217.216 177.164 217.443C179.649 217.807 182.755 218.216 186.452 218.701C186.588 218.716 186.679 218.731 186.8 218.746C185.921 219.065 179.497 221.928 174.043 224.308C168.588 226.687 164.103 228.596 160.603 230.006C159.149 230.597 157.906 231.082 156.785 231.506C156.497 231.491 156.24 231.506 155.937 231.476C154.179 231.324 152.255 231.006 150.103 230.37C147.952 229.748 145.694 228.885 143.664 227.99C141.633 227.096 139.8 226.157 138.194 225.172C136.587 224.187 135.194 223.171 134.255 222.368C133.33 221.565 132.739 220.959 132.209 220.368C131.664 219.777 131.179 219.171 130.739 218.55C130.3 217.928 129.921 217.292 129.679 216.837C129.437 216.383 129.315 216.14 129.164 215.807C129.027 215.473 128.845 215.079 128.663 214.595C128.482 214.11 128.27 213.564 127.709 211.806C127.148 210.063 126.285 207.381 125.527 205.154C124.77 202.911 124.118 201.108 123.588 199.729C123.057 198.35 122.618 197.38 122.209 196.516C121.785 195.652 121.224 194.607 120.603 193.592C119.982 192.576 119.27 191.607 118.497 190.682C117.724 189.758 116.861 188.909 116.239 188.242C115.618 187.576 115.618 187.576 115.997 188.045C115.997 188.045 116.649 189.061 117.224 190.106C117.785 191.152 118.315 192.197 118.815 193.228C119.3 194.258 119.74 195.304 120.133 196.38C120.527 197.456 120.785 198.107 121.103 199.198C121.437 200.289 121.86 201.82 122.376 203.79C122.891 205.76 123.512 208.185 124.239 211.034C124.967 213.883 125.164 214.579 125.346 215.14C125.527 215.716 125.694 216.216 125.861 216.656C126.027 217.095 126.179 217.489 126.33 217.807C126.482 218.126 126.861 218.898 127.315 219.702C127.77 220.49 128.3 221.262 128.891 222.005C129.482 222.747 130.134 223.46 130.876 224.142C131.618 224.824 133.088 225.96 134.77 227.006C136.451 228.051 138.33 229.006 140.406 229.885C142.482 230.749 144.74 231.536 147.239 232.234C148.921 232.703 150.436 232.946 151.876 233.098C150.527 233.477 148.921 233.916 147.406 234.249C145.406 234.689 143.512 234.962 141.709 235.068C139.906 235.189 138.194 235.144 136.618 234.962C135.042 234.78 129.785 233.37 125.103 231.537C120.421 229.703 116.3 227.415 112.739 224.718C109.163 222.005 106.133 218.868 103.633 215.277C101.133 211.685 98.6025 206.488 96.8753 201.578C95.1325 196.668 94.2237 192.016 94.1326 187.576C94.0418 183.136 94.7691 178.862 95.148 176.65C95.4812 175.695 95.6632 175.089 95.7691 174.649C96.2993 174.271 96.8299 173.938 97.3601 173.513C98.4357 172.664 99.5268 171.725 101.769 169.209C104.011 166.694 106.905 163.224 109.284 160.375C111.663 157.526 113.557 155.298 114.966 153.707C116.36 152.116 117.269 151.191 117.905 150.616C118.541 150.025 119.193 149.449 119.89 148.903C120.587 148.358 121.345 147.873 122.148 147.403C122.951 146.933 123.814 146.494 124.496 146.251C125.193 146.009 125.193 146.009 124.723 146.145C124.723 146.145 123.754 146.327 122.799 146.524C121.845 146.721 120.935 147.024 120.057 147.418C119.178 147.812 118.36 148.282 117.587 148.827C116.829 149.373 116.102 149.828 114.86 150.919C113.602 152.01 111.845 153.676 109.587 155.965C107.329 158.253 104.572 161.147 101.344 164.678C98.1173 168.194 97.1627 168.997 96.1321 169.831C95.117 170.664 94.1171 171.422 93.1625 172.088C92.1928 172.755 91.2685 173.331 90.4505 173.786C89.6324 174.24 87.7082 174.847 85.3898 175.21C83.0714 175.559 80.3594 175.65 77.2533 175.452C74.1471 175.255 70.6624 174.77 66.8139 173.998C62.9654 173.225 58.7533 171.952 54.7229 170.149C50.6924 168.345 46.8288 166.012 43.1319 163.117C40.2531 160.875 37.4957 158.192 34.8139 155.283C35.6169 155.753 36.4957 156.222 37.526 156.738C39.723 157.844 42.2535 158.935 44.6168 159.829C46.9653 160.723 49.1472 161.405 51.1471 161.875C53.1471 162.344 54.9956 162.618 56.8897 162.678C58.7988 162.739 60.9503 162.618 63.1927 162.36C65.435 162.102 67.7836 161.693 70.2078 161.148C72.6321 160.602 75.1471 159.905 77.1625 159.223C79.1779 158.541 80.5867 157.874 81.9959 157.041C83.405 156.207 84.7991 155.207 86.1625 154.025C87.5262 152.843 88.8442 151.464 89.8745 150.403C90.8899 149.343 90.8899 149.343 90.1626 149.995C90.1626 149.995 88.5413 151.116 86.9809 152.086C85.4201 153.055 83.9504 153.919 82.5265 154.647C81.1022 155.374 79.7233 155.95 78.3901 156.374C77.0566 156.799 74.5113 157.359 72.0569 157.814C69.602 158.268 67.284 158.602 65.0568 158.814C62.8443 159.041 60.7386 159.147 58.7687 159.147C56.7839 159.147 55.299 159.102 53.6022 158.859C51.89 158.632 49.9658 158.223 47.7991 157.632C45.6325 157.041 43.2536 156.283 40.6474 155.329C38.0414 154.389 36.3291 153.662 34.7536 152.889C33.3142 152.192 32.0263 151.449 30.8597 150.706C28.6627 147.858 27.4354 145.615 26.617 143.236C25.5868 140.296 25.117 137.098 25.1928 133.658C25.2837 130.203 25.9352 126.49 27.1776 122.475C28.0413 119.671 28.4201 118.641 28.6777 118.126C28.7837 118.353 28.8746 118.55 29.011 118.808C29.9655 120.565 31.3898 122.46 33.299 124.536C35.2081 126.612 37.6021 128.915 40.4658 131.4C43.3295 133.901 45.8899 136.083 48.3142 137.977C50.7384 139.871 53.0416 141.463 55.1928 142.751C57.3595 144.039 59.4046 145.009 61.3289 145.645C63.2532 146.297 65.6018 146.767 67.8592 147.009C70.1171 147.236 72.2985 147.221 74.3896 146.948C76.4806 146.675 78.4654 146.16 80.3594 145.387C82.2534 144.615 83.4807 143.827 84.2987 142.842C85.102 141.857 85.4201 140.69 85.2079 139.478C85.1928 139.402 85.1625 139.341 85.1474 139.265C85.2684 139.386 85.3595 139.508 85.4806 139.644C87.9657 142.311 91.0563 144.993 92.9957 146.115C96.7686 148.721 95.0111 147.13 96.8594 148.615C95.3897 146.706 92.3138 143.615 89.7837 140.781C87.2536 137.932 85.299 135.295 83.905 132.84C82.5265 130.385 81.6929 128.143 81.4051 126.536C81.1022 124.915 81.011 123.824 80.9657 122.763C80.9203 121.717 80.9354 120.702 80.9808 119.747C81.0413 118.793 81.1627 117.868 81.9354 115.611C82.708 113.367 84.0567 109.534 85.1776 105.836C86.299 102.139 87.193 98.5778 87.8598 95.1531C88.5262 91.7284 88.9657 88.4398 89.0719 85.985C89.1778 83.5301 88.9657 81.9388 88.5564 80.3479C88.1476 78.7569 87.5414 77.1501 86.7385 75.544C85.9355 73.9376 84.9507 72.316 84.0567 71.0587C83.1626 69.8006 82.3143 68.9674 81.2837 68.3156C80.2686 67.6643 79.1019 67.1945 77.8293 66.9218C76.5566 66.6335 75.1475 66.5125 74.1021 66.5125C73.0413 66.5125 72.4657 66.5579 71.9203 66.6335C71.375 66.6944 70.8443 66.7852 70.3444 66.8911C69.8444 66.9974 69.3595 67.1336 68.102 67.6945C66.8294 68.2551 65.1173 69.043 63.6325 69.6796C62.1477 70.3162 60.8902 70.786 59.8903 71.089C58.8902 71.392 58.1629 71.5436 57.2084 71.6647C56.2689 71.7861 55.1023 71.892 53.9205 71.9223C52.7235 71.9525 51.4962 71.892 50.2235 71.7558C48.9508 71.6193 47.6477 71.392 45.4204 70.8919C43.178 70.3919 40.2841 69.4977 37.6325 68.3005C34.981 67.1033 32.6021 65.6334 30.4506 63.8454C28.299 62.0726 26.3899 59.9963 25.2231 57.8748C24.0564 55.7531 23.8746 53.571 24.5261 51.3283C25.1777 49.0856 26.7383 46.7065 29.299 44.2062C31.8596 41.721 35.4201 39.1448 40.2989 37.2051C45.1776 35.2654 50.8445 34.2198 56.0716 33.7955C61.2986 33.3712 66.0866 33.5682 70.4503 34.3865C74.8139 35.1896 78.7532 36.5989 81.7837 38.1598C84.8138 39.7055 87.1927 41.0693 89.6018 42.5695C92.026 44.0849 94.4805 45.7518 96.9955 47.5704C99.5105 49.3888 102.071 51.374 103.799 52.7377C105.526 54.1015 106.783 55.2077 108.738 57.1322C110.707 59.0719 113.344 61.8146 116.677 65.3456C119.996 68.8917 123.995 73.2102 127.299 76.6353C130.586 80.06 132.541 81.8026 134.344 83.3788C136.162 84.955 137.829 86.3337 139.374 87.546C140.92 88.7583 142.344 89.7887 144.314 91.2283C146.283 92.6528 149.48 94.7593 153.42 96.9108C157.36 99.0627 162.026 101.275 167.435 103.518C172.844 105.761 179.026 108.003 184.041 109.64C189.056 111.277 189.056 111.277 185.814 109.958C185.814 109.958 179.601 106.609 173.98 103.806C168.344 101.002 163.404 98.4568 159.177 96.1229C157.117 94.9863 155.238 93.895 153.526 92.8646C153.693 92.9256 153.859 92.9861 154.026 93.0466C154.995 93.3647 156.284 93.7437 157.602 94.0769C158.935 94.4106 160.283 94.6833 161.693 94.9106C163.087 95.138 164.526 95.3044 165.874 95.4258C167.223 95.5317 168.435 95.5922 169.617 95.5771C170.814 95.562 171.98 95.4863 173.117 95.3804C174.253 95.259 175.374 95.1073 177.223 94.7589C179.071 94.4102 181.541 93.8799 183.844 93.3344C186.162 92.789 188.329 92.228 190.344 91.6675C192.359 91.0918 194.223 90.5006 195.238 90.1371C196.253 89.7732 196.571 89.6975 196.935 89.6068C197.283 89.5307 197.677 89.4399 198.086 89.3643C198.495 89.2883 198.935 89.2277 199.268 89.2277H199.389C199.389 89.2277 198.935 89.2126 198.51 89.137C198.071 89.0609 197.662 89.0155 197.268 88.9853C196.874 88.955 196.495 88.955 196.132 88.9702C195.768 88.9853 193.935 89.2731 191.98 89.5765C190.026 89.8946 187.935 90.2278 185.693 90.5615C183.45 90.8947 181.071 91.2431 178.556 91.5918C176.041 91.9402 175.011 92.0314 173.95 92.107C172.889 92.1827 171.799 92.228 170.692 92.228C169.587 92.228 168.465 92.2587 167.314 92.2587C166.162 92.2587 164.768 92.1978 163.42 92.107C162.056 92.0162 160.738 91.8645 159.435 91.6826C158.132 91.5007 156.875 91.2733 155.617 90.9855C154.359 90.7128 153.708 90.5762 152.799 90.3035C151.89 90.0308 150.678 89.6064 149.178 89.0761C148.238 88.7428 147.193 88.3638 146.269 88.0608C144.935 87.1364 144.011 86.4699 143.087 85.7728C141.769 84.7878 140.299 83.6058 138.723 82.2872C139.829 82.8326 140.981 83.3024 142.45 83.6965C144.329 84.1966 146.677 84.6361 149.102 84.9845C151.526 85.3332 154.026 85.5757 156.602 85.7119C159.178 85.8484 161.814 85.8787 163.981 85.803C166.147 85.7425 167.738 85.5908 169.253 85.3786C170.769 85.1664 172.223 84.8634 173.586 84.4996C174.95 84.1209 176.253 83.6814 178.995 82.0447C181.738 80.4084 185.359 78.1199 188.465 76.3164C191.556 74.4982 194.117 73.1644 196.102 72.3005C198.087 71.4521 199.45 71.0731 201.783 70.6638C204.117 70.2549 207.299 69.7549 210.162 69.5275C213.041 69.3002 215.617 69.3305 217.89 69.6183C220.163 69.9062 222.117 70.452 224.041 71.3004C225.95 72.1643 228.147 73.5885 230.617 75.695C233.072 77.7863 235.783 80.5593 238.707 83.984C240.662 86.272 242.723 88.8786 244.723 91.6973C243.526 90.667 242.298 89.6669 241.071 88.7878C239.632 87.7726 238.208 86.8784 236.813 86.1208C235.405 85.3631 234.026 84.7114 232.132 84.1508C230.253 83.5902 227.738 83.1658 225.056 83.1053C222.374 83.0444 219.541 83.3478 216.556 84.0294C213.571 84.7114 210.45 85.8329 208.026 86.8179C205.617 87.8028 205.617 87.8028 207.268 87.2877C207.268 87.2877 210.692 86.6662 213.799 86.1964C216.92 85.7266 219.753 85.4993 222.359 85.5451C224.965 85.5904 227.313 85.9388 229.45 86.5754C231.586 87.1965 232.814 87.7121 234.116 88.2575C235.42 88.8029 236.768 89.4547 238.162 90.2426C239.556 91.0305 240.996 91.9247 242.48 92.955C243.965 93.9703 245.268 94.9704 246.465 95.9709C247.389 96.7436 248.177 97.5164 248.98 98.3043C251.283 102.153 253.389 106.063 255.329 109.973C257.177 113.701 258.874 117.352 260.541 121.02C260.48 120.959 260.42 120.869 260.344 120.808C259.602 120.065 258.768 119.338 257.874 118.626C256.98 117.913 256.011 117.216 255.056 116.58C254.117 115.943 253.223 115.383 252.344 114.868C251.45 114.352 250.526 113.898 249.602 113.504C248.677 113.11 247.753 112.746 246.935 112.458C246.132 112.17 245.238 111.867 244.117 111.534C242.995 111.185 241.632 110.806 240.041 110.382C238.435 109.958 236.587 109.503 235.208 109.17C233.829 108.836 233.071 108.624 232.314 108.412C231.556 108.215 230.814 108.003 230.086 107.821C229.344 107.624 228.617 107.442 228.117 107.245C227.602 107.048 227.602 107.048 227.935 107.2C227.935 107.2 228.586 107.548 229.223 107.942C229.859 108.336 230.541 108.715 231.223 109.079C231.92 109.442 232.632 109.791 233.374 110.124C234.117 110.458 236.056 111.185 237.753 111.822C239.45 112.458 240.904 113.004 242.132 113.473C243.344 113.943 244.329 114.337 245.056 114.671C245.799 115.004 246.662 115.383 247.511 115.777C248.359 116.186 249.193 116.61 250.056 117.05C250.92 117.489 251.783 117.928 252.662 118.413C253.541 118.898 254.556 119.474 255.48 120.065C256.42 120.656 257.283 121.247 258.086 121.854C258.89 122.46 259.617 123.081 260.283 123.717C260.95 124.354 261.799 125.202 262.556 126.021C262.753 126.233 262.904 126.445 263.086 126.642C264.693 130.294 266.329 134.083 268.51 138.644C270.207 142.205 272.207 146.13 273.526 148.312C272.526 147.933 271.359 147.342 269.965 146.494L269.968 146.491Z" fill="black"/>
<path d="M193.529 167.056C193.392 165.737 192.65 163.404 191.756 161.267C190.877 159.13 189.877 157.175 188.817 155.402C187.756 153.63 186.605 152.038 185.862 151.114C185.105 150.189 184.771 149.78 184.407 149.386C184.044 148.992 183.68 148.613 183.302 148.219C182.923 147.841 182.529 147.462 181.483 146.583C180.438 145.704 178.908 144.416 177.483 143.279C176.075 142.143 174.787 141.143 173.666 140.233C172.544 139.324 171.575 138.506 169.832 136.975C169.241 136.46 168.544 135.854 167.832 135.218C167.363 134.596 166.847 133.929 166.332 133.278C165.317 132.035 164.302 130.868 163.302 129.807C162.287 128.747 161.287 127.762 160.302 126.898C159.317 126.034 158.878 125.61 157.908 124.868C157.074 124.231 155.802 123.337 154.241 122.276C153.817 121.791 153.393 121.306 153.06 120.943C152.605 120.458 152.211 120.064 151.893 119.776C151.559 119.488 151.332 119.321 151.211 119.23C151.089 119.139 150.968 119.048 150.832 118.958C150.711 118.867 150.59 118.776 150.453 118.7C150.332 118.609 150.181 118.518 149.892 118.351C149.62 118.2 149.302 118.003 148.923 117.776C148.544 117.548 148.12 117.275 147.635 116.987C147.15 116.684 146.514 116.306 144.09 115.109C141.666 113.911 141.59 113.881 141.484 113.82C141.377 113.76 141.271 113.699 141.135 113.624C140.999 113.548 140.862 113.472 140.711 113.381C140.559 113.305 140.059 112.987 139.575 112.684C139.09 112.381 138.635 112.123 138.211 111.881C137.787 111.638 137.408 111.396 137.06 111.153C136.726 110.926 136.514 110.775 136.286 110.577C136.059 110.396 135.817 110.183 135.559 109.941C135.302 109.698 135.044 109.441 134.787 109.198C134.544 108.956 133.529 107.713 132.635 106.653C132.559 106.562 132.514 106.501 132.438 106.425C132.377 106.319 132.317 106.198 132.256 106.092C131.559 104.94 130.772 103.834 129.908 102.773C129.029 101.727 128.059 100.727 126.999 99.7878C125.938 98.8482 125.302 98.3939 124.741 98.0149C124.18 97.6359 123.62 97.2875 123.075 96.9694C122.529 96.6358 121.968 96.3328 121.378 96.0298C120.786 95.7269 118.605 94.8629 116.802 94.1355C114.983 93.393 113.499 92.7716 112.332 92.2564C111.165 91.7412 110.347 91.3471 109.847 91.0592C109.348 90.7714 108.741 90.4381 108.181 90.0742C107.62 89.6956 107.014 89.2561 106.362 88.7106C105.726 88.1799 105.06 87.5589 104.347 86.8617C103.65 86.1646 103.06 85.5435 102.514 84.922C101.968 84.3006 101.469 83.6795 101.014 83.058C100.559 82.4369 100.135 81.8155 99.7867 81.2398C99.4384 80.6637 98.0443 77.7999 96.8322 75.3451C95.6201 72.8902 94.5592 70.8597 93.6656 69.2533C92.7715 67.6468 92.0442 66.4648 91.514 65.6769C90.9686 64.9041 90.2259 63.8431 89.4532 62.843C88.6806 61.8429 87.9381 60.9185 87.1957 60.0852C86.4533 59.2517 85.7261 58.494 84.9988 57.797C84.2564 57.1151 82.6351 55.8421 80.8927 54.7056C79.1655 53.569 77.332 52.5689 75.4077 51.7203C73.4835 50.8717 71.4684 50.1898 70.3773 50.0534C68.256 49.5987 69.2408 50.0534 68.2106 49.72C69.1349 50.3564 71.029 51.296 72.8318 52.2658C74.6347 53.2508 76.3317 54.2964 77.9227 55.4481C79.5138 56.5998 81.0137 57.8272 82.0137 58.7819C83.0136 59.7368 83.6199 60.4184 84.2409 61.1912C84.8623 61.9492 85.5135 62.7976 86.1652 63.7372C86.8168 64.6768 87.4987 65.692 88.044 66.5253C88.5894 67.359 89.0742 68.1923 89.7561 69.4806C90.438 70.7686 91.3166 72.496 92.3925 74.6479C93.4681 76.7998 94.7412 79.3912 95.6651 81.2246C96.6045 83.0731 97.044 83.7854 97.544 84.4976C98.0288 85.2099 98.5742 85.907 99.1502 86.6041C99.7258 87.3013 100.347 87.9833 101.044 88.7258C101.756 89.4531 102.514 90.1957 103.256 90.8621C103.999 91.529 104.726 92.1051 105.438 92.6203C106.15 93.1354 106.862 93.575 107.408 93.8931C107.953 94.2112 108.695 94.5902 109.711 95.0751C110.726 95.5449 112.044 96.1206 113.68 96.7875C115.317 97.4695 117.256 98.2422 118.498 98.7574C119.741 99.2726 120.226 99.5302 120.71 99.8029C121.195 100.076 121.695 100.379 122.195 100.697C122.695 101.015 123.211 101.364 123.907 101.925C124.604 102.485 125.498 103.319 126.316 104.197C127.135 105.077 127.862 105.986 128.498 106.956C129.15 107.91 129.71 108.926 130.423 111.047C131.135 113.169 131.832 116.412 132.089 119.443C132.362 122.458 132.241 125.247 131.726 127.838C131.211 130.429 130.301 132.839 128.71 135.294C127.12 137.749 125.074 139.991 123.029 141.537C120.999 143.083 118.953 143.962 116.862 144.219C114.756 144.477 112.514 144.129 110.756 143.462C108.999 142.795 108.999 142.795 110.135 143.34C110.135 143.34 112.287 144.735 114.635 145.341C116.969 145.947 119.423 145.719 121.878 144.704C124.348 143.689 126.787 141.916 129.211 139.37C131.635 136.84 133.181 134.248 134.211 131.445C135.242 128.656 135.787 125.641 135.817 122.413C135.847 119.609 135.439 116.624 134.757 113.533C135.06 113.805 135.423 114.093 135.817 114.397C136.241 114.73 136.711 115.048 137.196 115.397C137.696 115.73 138.272 116.003 138.666 116.2C139.06 116.397 139.241 116.488 139.408 116.563C139.575 116.639 139.727 116.7 139.878 116.776C140.029 116.836 140.166 116.897 141.499 117.382C142.696 117.821 144.787 118.579 145.575 118.912C146.969 120.034 148.514 121.231 149.878 122.307C152.03 124.004 153.712 125.338 154.893 126.307C156.075 127.277 156.742 127.883 157.378 128.52C158.03 129.156 158.908 130.05 159.802 131.035C160.696 132.02 161.605 133.096 162.514 134.248C163.424 135.415 164.363 136.657 165.09 137.688C165.833 138.703 166.333 139.461 166.818 140.279C167.302 141.097 167.757 141.961 168.212 142.886C168.651 143.81 169.09 144.78 171.211 150.462C173.333 156.13 177.302 166.495 177.909 167.662C178.499 168.813 179.151 169.965 179.863 171.132C180.575 172.299 181.363 173.465 182.121 174.284C182.878 175.087 182.878 175.087 182.53 174.466C182.53 174.466 182.287 172.965 181.742 171.693C181.197 170.435 180.681 169.223 180.196 168.041C179.727 166.874 179.318 165.813 176.105 155.19C173.636 147.052 172.803 144.461 172.348 143.219C172.863 143.689 173.408 144.158 174 144.674C175.302 145.81 176.817 146.962 178.469 148.189C180.136 149.417 180.469 149.69 180.848 150.008C181.226 150.326 181.59 150.644 181.939 150.978C182.287 151.311 182.636 151.66 182.984 151.993C183.318 152.342 184.545 153.63 185.712 155.084C186.878 156.539 188.029 158.176 189.166 160.009C190.302 161.843 191.423 163.858 192.181 164.843C193.408 167.101 193.059 165.874 193.529 167.056Z" fill="black"/>
<path d="M218.078 258.826C216.745 255.674 215.593 252.886 214.669 250.415C213.744 247.945 213.047 245.809 212.578 243.96C212.123 242.126 211.957 241.46 211.82 240.793C211.699 240.126 211.578 239.444 211.487 238.732C211.396 238.019 211.335 237.277 211.275 236.519C211.229 235.777 211.184 232.2 211.078 229.17C210.972 226.139 210.865 223.684 210.744 221.79C210.623 219.896 210.487 218.562 210.366 217.774C210.244 217.001 210.078 215.895 209.866 214.774C209.653 213.652 209.396 212.576 209.093 211.531C208.79 210.485 208.441 209.485 208.048 208.5C207.638 207.5 206.259 204.954 204.684 202.726C203.108 200.499 201.366 198.605 199.456 197.059C197.547 195.513 195.472 194.347 194.305 194.044C192.078 193.316 193.093 193.862 192.017 193.437C192.941 194.165 194.82 195.407 196.532 196.877C198.244 198.332 199.79 200.044 201.184 202.029C202.578 204.014 203.805 206.288 204.517 207.924C205.229 209.561 205.502 210.455 205.759 211.394C206.002 212.334 206.214 213.303 206.396 214.304C206.578 215.319 206.714 216.365 206.805 217.183C206.911 218.017 206.972 218.865 207.063 220.32C207.138 221.79 207.244 223.836 207.351 226.457C207.456 229.079 207.593 232.276 207.729 234.519C207.866 236.762 207.972 237.595 208.093 238.383C208.214 239.186 208.366 239.959 208.532 240.702C208.699 241.444 208.896 242.171 209.26 243.414C209.623 244.657 210.335 246.672 211.32 248.96C212.305 251.233 213.563 253.779 215.123 256.567C216.684 259.356 218.593 262.371 220.169 264.766C221.729 267.16 221.729 267.16 220.836 265.493C220.805 265.538 219.411 261.978 218.078 258.826Z" fill="black"/>
<path d="M105.864 40.1731C106.925 40.2944 107.955 40.3095 108.955 40.2792C109.955 40.2489 110.91 40.158 111.834 40.0064C112.759 39.8549 113.274 39.7488 113.743 39.6427C114.213 39.5367 114.667 39.4306 115.076 39.3245C115.486 39.2185 115.864 39.1124 116.243 38.9911C116.622 38.8699 118.273 38.2031 119.683 37.6576C121.092 37.112 122.258 36.6726 123.183 36.3695C124.107 36.0513 124.773 35.8694 125.198 35.8088C125.622 35.7482 126.44 35.627 127.183 35.5361C127.925 35.4452 128.637 35.3694 129.304 35.3088C129.986 35.2482 130.622 35.233 131.243 35.2482C131.864 35.2633 132.758 35.3088 133.637 35.4452C134.516 35.5816 135.395 35.7937 136.304 36.1119C137.198 36.415 138.122 36.809 139.046 37.2788C139.971 37.7637 141.122 38.4608 142.167 39.1579C143.213 39.8549 144.137 40.5672 144.955 41.2642C145.774 41.9613 146.486 42.6584 146.879 42.9615C147.501 43.6585 147.379 43.2039 147.622 43.5979C147.516 43.113 147.046 42.2341 146.44 41.3551C145.819 40.4762 145.061 39.5973 144.152 38.7184C143.243 37.8394 142.213 36.9757 141.168 36.2028C140.122 35.43 139.168 34.839 138.183 34.3389C137.198 33.8388 136.198 33.4297 135.183 33.1266C134.167 32.8236 133.137 32.6114 132.289 32.5053C131.44 32.3992 130.713 32.3386 129.956 32.3386C129.198 32.3235 128.425 32.3538 127.622 32.4295C126.819 32.5053 125.986 32.6569 125.349 32.7781C124.698 32.8993 124.016 33.0963 123.168 33.4145C122.319 33.7328 121.289 34.1874 120.046 34.7784C118.804 35.3694 117.349 36.0967 116.455 36.5514C115.561 37.006 115.243 37.1272 114.879 37.2787C114.531 37.4151 114.137 37.5515 113.713 37.7031C113.289 37.8546 112.834 38.0061 112.167 38.2183C111.516 38.4304 110.652 38.6729 109.758 38.8851C108.849 39.0972 107.895 39.2942 106.895 39.476C105.895 39.6579 104.834 39.8397 104.016 39.8852C103.198 39.9307 103.198 39.9307 103.743 39.9307C103.698 39.9458 104.804 40.0671 105.864 40.1731Z" fill="black"/>
<path d="M37.3184 54.5075L36.8336 54.2044C36.4851 54.0225 36.1366 53.871 35.7881 53.7801L35.2578 53.6589C34.9093 53.5983 34.5608 53.5831 34.2275 53.5982C33.1821 53.6589 32.3639 54.0529 31.773 54.7803C31.1972 55.5682 31.0457 56.432 31.3184 57.3867C31.5911 58.3414 32.1972 59.1445 33.1366 59.8264C34.1517 60.4933 35.182 60.7963 36.2275 60.7358C37.273 60.6752 38.0912 60.2811 38.6821 59.5537C39.2578 58.7657 39.4093 57.902 39.1366 56.9473C38.879 55.9926 38.273 55.1894 37.3184 54.5075Z" fill="black"/>
</g>
<defs>
<clipPath id="clip0_202_82">
<rect width="256" height="263.797" fill="white" transform="translate(20.5 20.594)"/>
</clipPath>
</defs>
</svg>
